<?xml version="1.0" encoding="utf-8"?>
<!-- Generator: Adobe Illustrator 19.0.0, SVG Export Plug-In . SVG Version: 6.00 Build 0)  -->
<svg version="1.1" id="Layer_1" xmlns="http://www.w3.org/2000/svg" xmlns:xlink="http://www.w3.org/1999/xlink" x="0px" y="0px"
	 viewBox="-280 372 50 50" style="enable-background:new -280 372 50 50;" xml:space="preserve">
<style type="text/css">
	.st0{fill:none;}
	.st1{fill:none;stroke:#126B36;stroke-width:2;stroke-linecap:round;stroke-miterlimit:10;}
</style>
<rect x="-280" y="372" class="st0" width="50" height="50"/>
<g>
	<g>
		<path class="st1" d="M-269.7,405.7h14v11.1h-12.2c-2,0-3.4-1.7-4.2-2.8"/>
		<path class="st1" d="M-272.1,414c-0.8-1.2-5.3-9.5-6.3-11c-0.9-1.4-0.6-3.5-0.1-4.3l3.5-6l-1.8-1l9.4-1.2l3.7,8.7l-1.8-1
			l-6.4,11.1C-272.5,410.7-273,412.8-272.1,414z"/>
	</g>
	<g>
		<path class="st1" d="M-240.1,405.8"/>
		<path class="st1" d="M-240.2,405.8l-7-12.1l9.6-5.6l6.1,10.6c1,1.8,0.3,3.8-0.4,5.1"/>
		<path class="st1" d="M-231.8,403.7c-0.6,1.3-5.6,9.4-6.3,10.9c-0.8,1.5-2.7,2.3-3.7,2.3l-7-0.1l0,2l-5.7-7.6l5.7-7.6v2h12.8
			C-234.5,405.8-232.5,405.1-231.8,403.7z"/>
	</g>
	<g>
		<path class="st1" d="M-248.3,374c1.7-0.1,3.3,1.2,3.8,2l3.4,6.1l1.8-1l-3.7,8.7l-9.4-1.2l1.8-1l-4.3-7.5"/>
		<path class="st1" d="M-260.9,374c-1.4,0.1-3.5,0.5-4.6,2.2l-6.1,10.6l9.6,5.6l8.9-15.5c0.8-1.4,2.7-2.8,4.7-2.8
			C-250.4,374.1-255.3,374-260.9,374z"/>
	</g>
</g>
</svg>
